HIERARCHY
ROOT Hips
{
   OFFSET 0.00000 0.00000 0.00000
   CHANNELS 6 Xposition Yposition Zposition Zrotation Xrotation Yrotation
   JOINT RightUpLeg
   {
      OFFSET -8.051219 -7.800363 0.091487
      CHANNELS 3 Zrotation Xrotation Yrotation
      JOINT RightLeg
      {
         OFFSET 0.000000 -39.980428 1.235430
         CHANNELS 3 Zrotation Xrotation Yrotation
         JOINT RightFoot
         {
            OFFSET 0.228194 -37.883157 -1.314531
            CHANNELS 3 Zrotation Xrotation Yrotation
            JOINT RightToes
            {
               OFFSET 0.036000 -3.973581 7.649189
               CHANNELS 3 Zrotation Xrotation Yrotation
               End Site
               {
                  OFFSET -0.072000 -0.123703 8.801811
               }
            }
         }
      }
   }
   JOINT Spine
   {
      OFFSET 0.000000 10.701450 0.000000
      CHANNELS 3 Zrotation Xrotation Yrotation
      JOINT Spine1
      {
         OFFSET 0.000000 23.091659 0.114897
         CHANNELS 3 Zrotation Xrotation Yrotation
         JOINT HEad
         {
            OFFSET 0.000000 7.860744 0.010207
            CHANNELS 3 Zrotation Xrotation Yrotation
            End Site
            {
               OFFSET -0.261000 11.496780 2.262555
            }
         }
         JOINT LeftShoulder1
         {
            OFFSET 8.091000 -0.326027 -0.198000
            CHANNELS 3 Zrotation Xrotation Yrotation
            JOINT LeftArm
            {
               OFFSET 9.254430 -0.003042 0.289911
               CHANNELS 3 Zrotation Xrotation Yrotation
               JOINT LeftForeArm
               {
                  OFFSET 29.490208 0.089230 -1.281906
                  CHANNELS 3 Zrotation Xrotation Yrotation
                  JOINT LeftHand
                  {
                     OFFSET 24.807870 0.076826 0.919944
                     CHANNELS 3 Zrotation Xrotation Yrotation
                     End Site
                     {
                        OFFSET 15.069871 -0.540000 1.352619
                     }
                  }
               }
            }
         }
         JOINT RightShoulder
         {
            OFFSET -8.091000 -0.326027 -0.198000
            CHANNELS 3 Zrotation Xrotation Yrotation
            JOINT RightArm
            {
               OFFSET -9.254430 -0.003042 0.289911
               CHANNELS 3 Zrotation Xrotation Yrotation
               JOINT RightForeArm
               {
                  OFFSET -29.607386 0.089230 -1.281906
                  CHANNELS 3 Zrotation Xrotation Yrotation
                  JOINT RightHand
                  {
                     OFFSET -24.742889 0.076826 0.919944
                     CHANNELS 3 Zrotation Xrotation Yrotation
                     End Site
                     {
                        OFFSET -14.968080 -0.540000 1.352619
                     }
                  }
               }
            }
         }
      }
   }
   JOINT LeftUpLeg
   {
      OFFSET 8.051219 -7.800363 0.091487
      CHANNELS 3 Zrotation Xrotation Yrotation
      JOINT LeftLeg
      {
         OFFSET 0.000000 -39.980428 1.235430
         CHANNELS 3 Zrotation Xrotation Yrotation
         JOINT LeftFoot
         {
            OFFSET -0.228194 -37.883157 -1.314531
            CHANNELS 3 Zrotation Xrotation Yrotation
            JOINT LeftToes
            {
               OFFSET -0.036000 -3.973581 7.649189
               CHANNELS 3 Zrotation Xrotation Yrotation
               End Site
               {
                  OFFSET 0.072000 -0.042703 8.801811
               }
            }
         }
      }
   }
}
MOTION
Frames: 9
Frame Time: 0.016667
-183.060147 95.683039 -505.106651 9.247607 -33.338147 -1.941702 -8.785490 6.893038 -63.680873 -28.682802 -4.319375 53.395082 -36.723625 9.189261 45.358395 -3.353829 -7.376697 -10.908499 -5.864848 30.401691 176.389348 4.660533 -11.273369 -154.347986 25.601470 25.923590 1.960446 39.042936 77.361632 -19.560941 222.894085 -39.477886 180.481315 -19.669975 -18.986949 -69.396996 -107.627703 -45.975728 -89.747566 -69.759270 68.465611 99.652931 118.322700 31.302672 199.855870 -1.796912 87.068260 54.851951 -4.724437 3.826885 38.654161 8.588137 -6.248699 -6.119440 -26.272205 27.234367 36.033100 -38.933864 18.603697 47.790256 3.150793 -15.048006 -18.884612
-182.191217 95.830849 -508.117821 9.469600 -35.150407 -2.388405 -8.896726 7.201102 -65.999640 -27.920697 -5.970645 53.634795 -37.869878 11.342722 44.783344 -3.967005 -7.079174 -9.673428 -6.962828 33.711211 176.342343 3.869612 -8.897653 -155.679750 21.291882 27.791394 6.251367 39.690810 77.366386 -20.322516 223.012944 -40.763453 182.305686 -15.640674 -18.976677 -69.458454 -110.777786 -45.512443 -92.347197 -70.090226 69.374395 101.006340 117.311436 38.500130 198.602189 -1.416804 94.728276 55.815701 -6.563646 9.405290 25.528155 8.513133 -3.713310 -12.023387 -24.114652 32.157477 29.138758 -45.968058 20.174157 44.906110 3.383203 -18.319180 -21.424755
-181.302659 96.266678 -511.321060 9.169220 -35.554563 -4.228693 -10.998570 5.191521 -68.866339 -28.500107 -6.126259 53.679939 -23.223808 15.020675 43.687990 -4.341043 -5.325325 -8.238012 -8.650127 35.811348 176.348941 3.134846 -6.324397 -157.983355 17.222913 27.595899 11.420242 40.850682 77.461203 -21.495766 221.496819 -43.373972 184.027727 -11.467919 -18.842800 -68.309576 -106.670664 -40.931780 -95.397730 -71.189730 70.261514 103.845834 115.402521 45.623399 196.446131 -0.084398 103.689969 57.160682 -3.436856 3.449605 41.126929 9.425414 -2.718293 -17.521536 -26.123578 32.780714 29.048139 -52.915774 21.818670 43.050040 3.319231 -19.339515 -21.813667
-180.474755 96.634978 -514.396660 8.542899 -33.912760 -6.213610 -12.474856 1.071722 -71.038052 -29.108217 -6.466101 54.693812 -8.842186 19.168682 43.235155 -4.870339 -3.741027 -6.677783 -9.283947 37.464906 176.517647 2.932786 -4.952556 -160.902017 14.529744 25.132521 15.380541 43.322066 75.803775 -22.275865 220.583295 -46.030694 186.263999 -7.354784 -19.419898 -66.742573 -106.837641 -40.978000 -97.330168 -70.019541 75.084345 98.047741 113.601830 58.553518 193.300528 3.750545 111.537078 57.801562 -4.294974 6.984918 33.529323 8.326556 -2.547958 -21.766336 -26.518530 31.009677 26.951877 -45.497181 22.985038 41.254360 3.075418 -18.418090 -20.510884
-179.642770 96.906060 -517.378799 6.996177 -30.520974 -8.575832 -10.354013 -3.742031 -71.597403 -27.793717 -7.043347 56.110322 -15.048631 21.354281 43.520873 -5.634923 -3.266942 -4.865098 -10.115574 37.558001 178.408667 1.467776 -1.911832 -165.884695 12.419584 21.509804 18.608179 46.342533 74.831839 -22.745763 219.470466 -49.588884 189.999060 -4.055302 -19.419481 -66.064363 -102.235617 -38.697209 -100.562753 -71.295912 75.473570 100.242506 113.712036 62.752957 191.894370 1.631517 118.896217 57.718008 -3.838831 1.101963 44.390974 8.339076 -4.335859 -29.828823 -29.176236 26.592660 30.105626 -37.782868 24.562779 38.832470 2.802603 -16.669737 -19.032737
-178.841321 97.174490 -520.146515 4.283964 -25.956037 -11.654708 -8.721507 -9.995967 -71.353176 -26.316283 -5.492016 54.170090 -11.780854 21.795672 43.861702 -6.453389 -4.510308 -3.860442 -8.309242 38.610820 183.049384 1.733336 1.161847 -169.787451 12.359457 18.910133 20.267154 47.742643 74.167289 -22.722818 219.828436 -53.270039 193.591849 -0.985119 -19.787584 -67.456669 -100.258899 -38.169324 -104.502823 -72.819802 75.566337 101.211970 113.967853 68.672853 191.638743 2.111061 125.308659 59.117712 -5.510904 1.604624 39.807261 9.611520 -8.148082 -40.834706 -32.915102 19.474256 38.907196 -28.707418 26.851693 36.252284 2.630226 -13.609760 -17.480698
-177.956960 97.373732 -522.676651 2.018735 -23.142078 -15.850707 -6.514870 -13.143147 -72.244980 -24.796491 -4.539093 50.361686 -16.665498 21.047438 44.026587 -6.953752 -5.441889 -3.649504 -5.165121 37.078556 185.550203 1.023457 2.963007 -174.785825 16.524538 15.706572 20.959598 47.189756 73.964665 -24.302069 218.526288 -57.778421 197.332211 1.572848 -20.601577 -66.133723 -95.839357 -36.177108 -108.661923 -76.065003 74.326522 101.327557 113.329757 74.433141 190.841674 2.200983 132.214294 59.195692 -4.758789 -0.257615 44.051776 9.113284 -9.952921 -52.597368 -34.087374 12.736119 46.467235 -19.118712 28.585016 33.820030 2.475119 -9.812205 -15.699063
-176.978910 97.418498 -524.890320 -0.085215 -20.078704 -17.870869 -5.677596 -16.233999 -74.358043 -24.056186 -3.438386 46.028396 -14.556219 20.009399 44.096278 -7.331646 -6.606088 -3.996324 -2.026256 37.118175 186.952455 0.741821 5.047042 -180.165623 19.118295 13.450493 21.649500 49.000248 72.679367 -26.759382 223.647468 -59.364466 203.091727 6.693428 -19.419792 -63.409127 -93.376343 -36.633334 -110.974182 -78.738448 73.411625 101.453055 113.026503 80.349792 190.199458 2.537538 138.616763 58.902657 -5.604157 0.866725 40.511956 9.176989 -10.230942 -63.602783 -31.480069 4.894457 51.076704 -8.910671 29.873055 31.889846 2.428673 -5.235031 -13.907008
-175.920255 97.398594 -526.938354 -1.664402 -18.354318 -18.720270 -5.733480 -18.775621 -78.107332 -24.159924 -1.625072 43.357952 -17.554138 19.459834 43.517212 -7.316400 -6.751385 -5.013442 0.076872 37.110173 189.025513 1.220846 7.327398 -184.396953 20.617892 11.719705 22.388044 50.584203 71.859368 -28.682372 227.968150 -62.154735 207.450576 11.209398 -19.171725 -60.549251 -89.990392 -37.028778 -112.086048 -80.559233 73.228555 101.875509 113.297607 86.399161 190.105106 3.290232 144.485794 58.899283 -5.382245 0.147002 43.219371 9.432827 -8.781150 -74.341807 -27.484420 -1.901219 52.999461 1.655007 30.868664 29.765923 2.385569 -1.828670 -12.733230
